# Blender 4.3.2
# www.blender.org
mtllib mesh_land_ramp_a.001.mtl
o mesh_land_ramp_a.002
v -7.590871000 -5.410005000 0.200000000
v -10.300011000 -5.410006000 0.000000000
v -6.323932000 -5.410005000 0.000000000
v -10.300011000 -3.549482000 0.000000000
v -8.622338000 -3.549481000 0.200000000
v -7.312394000 -3.423683000 0.000000000
v -10.300011000 -5.410006000 0.200000000
v -10.300011000 -3.549482000 0.200000000
vn -0.000000000 -1.000000000 -0.000000000
vn -0.039700000 0.942200000 0.332800000
vn 0.155500000 0.077400000 0.984800000
vn 0.143000000 0.079300000 0.986500000
vn -0.000000000 0.000000000 -1.000000000
vn -0.000000000 1.000000000 -0.000000000
vn -0.000000000 0.000000000 1.000000000
vn -1.000000000 0.000000000 -0.000000000
s 0
f 1//1 2//1 3//1
f 4//2 5//2 6//2
f 1//3 3//3 6//3
f 1//4 6//4 5//4
f 1//1 7//1 2//1
f 6//5 3//5 2//5
f 6//5 2//5 4//5
f 4//6 8//6 5//6
f 7//7 1//7 5//7
f 7//7 5//7 8//7
f 8//8 4//8 2//8
f 8//8 2//8 7//8
