# Blender 4.3.2
# www.blender.org
mtllib mesh_land_ramp_b.001.mtl
o mesh_land_ramp_b.002
v -5.166451000 -4.663593000 0.000000000
v -5.166451000 -5.410003000 0.000000000
v -5.166451000 -5.410003000 0.200000000
v -3.848841000 -5.410003000 0.200000000
v -3.848841000 -4.663593000 0.000000000
v -3.848841000 -5.410003000 0.000000000
vn -1.000000000 0.000000000 -0.000000000
vn -0.000000000 0.258800000 0.965900000
vn -0.000000000 -1.000000000 -0.000000000
vn 1.000000000 0.000000000 -0.000000000
vn -0.000000000 0.000000000 -1.000000000
s 0
f 1//1 2//1 3//1
f 3//2 4//2 5//2
f 3//2 5//2 1//2
f 2//3 6//3 4//3
f 2//3 4//3 3//3
f 6//4 5//4 4//4
f 6//5 2//5 1//5
f 6//5 1//5 5//5
