# Blender 4.3.2
# www.blender.org
mtllib mesh_outpost.mtl
o mesh_outpost.002
v 3.381087000 4.257087000 0.300000000
v 3.381087000 4.257087000 1.876243000
v 3.381087000 3.457085000 1.876243000
v 3.381087000 3.457085000 0.300000000
v 2.731087000 3.691399000 0.300000000
v 2.965402000 3.457085000 0.300000000
v 2.965402000 3.457085000 1.876243000
v 2.731087000 3.691399000 1.876243000
v 2.965401000 4.257087000 0.300000000
v 2.731087000 4.022771000 0.300000000
v 2.731087000 4.022771000 1.876243000
v 2.965401000 4.257087000 1.876243000
vn 1.000000000 0.000000000 -0.000000000
vn -0.707100000 -0.707100000 -0.000000000
vn -0.707100000 0.707100000 -0.000000000
vn -0.000000000 -1.000000000 -0.000000000
vn -1.000000000 0.000000000 -0.000000000
vn -0.000000000 0.000000000 1.000000000
vn -0.000000000 1.000000000 -0.000000000
vn -0.000000000 0.000000000 -1.000000000
s 0
f 1//1 2//1 3//1
f 1//1 3//1 4//1
f 5//2 6//2 7//2
f 5//2 7//2 8//2
f 9//3 10//3 11//3
f 9//3 11//3 12//3
f 6//4 4//4 3//4
f 6//4 3//4 7//4
f 10//5 5//5 8//5
f 10//5 8//5 11//5
f 7//6 3//6 2//6
f 2//6 12//6 11//6
f 11//6 8//6 7//6
f 2//6 11//6 7//6
f 1//7 9//7 12//7
f 1//7 12//7 2//7
f 1//8 4//8 6//8
f 6//8 5//8 10//8
f 10//8 9//8 1//8
f 6//8 10//8 1//8
