# Blender 4.3.2
# www.blender.org
mtllib mesh_tunnel_top_a.mtl
o mesh_tunnel_top_a.002
v 1.001284000 -6.357481000 0.423524000
v 1.001284000 -6.357481000 0.250000000
v 1.001284000 -5.260002000 0.250000000
v 1.001284000 -5.260002000 0.423524000
v 0.801283000 -5.260002000 0.423524000
v 0.801283000 -6.357481000 0.423524000
v 0.801283000 -5.260002000 0.250000000
v 0.801283000 -6.357481000 0.250000000
vn 1.000000000 0.000000000 -0.000000000
vn -0.000000000 0.000000000 1.000000000
vn -1.000000000 0.000000000 -0.000000000
vn -0.000000000 0.000000000 -1.000000000
vn -0.000000000 1.000000000 -0.000000000
vn -0.000000000 -1.000000000 -0.000000000
s 0
f 1//1 2//1 3//1
f 1//1 3//1 4//1
f 4//2 5//2 6//2
f 4//2 6//2 1//2
f 5//3 7//3 8//3
f 5//3 8//3 6//3
f 8//4 7//4 3//4
f 8//4 3//4 2//4
f 7//5 5//5 4//5
f 7//5 4//5 3//5
f 8//6 2//6 1//6
f 8//6 1//6 6//6
