# Blender 4.3.2
# www.blender.org
mtllib mesh_land_high_a.mtl
o mesh_land_high_a.002
v 4.218387000 -6.357481000 0.200000000
v 4.218387000 -7.504492000 0.200000000
v 10.925240000 -7.504492000 0.200000000
v 10.925240000 -3.119898000 0.200000000
v 10.925240000 -7.504492000 0.000000000
v 10.925240000 -2.648727000 0.000000000
v 3.643194000 -7.504492000 0.000000000
v 3.643194000 -6.357481000 0.000000000
v 6.240089000 -2.648729000 0.000000000
v 6.485366000 -3.119899000 0.200000000
vn -0.000000000 0.000000000 1.000000000
vn 1.000000000 0.000000000 -0.000000000
vn -0.000000000 -1.000000000 -0.000000000
vn -0.000000000 0.000000000 -1.000000000
vn -0.320100000 0.224100000 0.920500000
vn -0.000000000 0.390700000 0.920500000
vn -0.328400000 0.000000000 0.944500000
s 0
f 1//1 2//1 3//1
f 4//2 5//2 6//2
f 5//3 2//3 7//3
f 5//4 7//4 8//4
f 4//2 3//2 5//2
f 5//3 3//3 2//3
f 5//4 8//4 9//4
f 5//4 9//4 6//4
f 9//5 8//5 1//5
f 9//5 1//5 10//5
f 3//1 4//1 10//1
f 3//1 10//1 1//1
f 6//6 9//6 10//6
f 6//6 10//6 4//6
f 2//7 1//7 8//7
f 2//7 8//7 7//7
