# Blender 4.3.2
# www.blender.org
mtllib mesh_tunnel_top_b.mtl
o mesh_tunnel_top_b.002
v 5.166451000 5.410003000 0.558819000
v 4.188366000 5.410003000 0.558819000
v 4.188366000 5.260002000 0.558819000
v 5.166451000 5.260002000 0.558819000
v 5.166451000 5.410003000 0.458819000
v 5.166451000 5.260002000 0.458819000
v 4.188366000 5.260002000 0.458819000
v 4.188366000 5.410003000 0.458819000
vn -0.000000000 0.000000000 1.000000000
vn -0.000000000 0.000000000 -1.000000000
vn -1.000000000 0.000000000 -0.000000000
vn 1.000000000 0.000000000 -0.000000000
vn -0.000000000 -1.000000000 -0.000000000
vn -0.000000000 1.000000000 -0.000000000
s 0
f 1//1 2//1 3//1
f 1//1 3//1 4//1
f 5//2 6//2 7//2
f 5//2 7//2 8//2
f 7//3 3//3 2//3
f 7//3 2//3 8//3
f 6//4 5//4 1//4
f 6//4 1//4 4//4
f 3//5 7//5 6//5
f 3//5 6//5 4//5
f 1//6 5//6 8//6
f 1//6 8//6 2//6
