# Blender 4.3.2
# www.blender.org
mtllib mesh_land_stronghold.001.mtl
o mesh_land_stronghold.002
v -7.959976000 0.949962000 -0.002530000
v -7.726599000 0.545740000 0.147001000
v -7.073401000 0.545741000 0.147001000
v -6.840221000 0.949621000 -0.003470000
v -8.519558000 -0.019945000 -0.003470000
v -8.053593000 -0.019945000 0.147940000
v -6.280442000 -0.019944000 -0.003470000
v -6.746802000 -0.019944000 0.147001000
v -7.073401000 -0.585630000 0.147001000
v -6.840024000 -0.989852000 -0.002530000
v -7.726796000 -0.585973000 0.147940000
v -7.959976000 -0.989853000 -0.002530000
vn -0.000000000 0.346900000 0.937900000
vn 0.000900000 0.348700000 0.937200000
vn -0.304100000 0.177400000 0.936000000
vn -0.301300000 0.172900000 0.937700000
vn 0.302300000 -0.174600000 0.937100000
vn 0.301300000 -0.172900000 0.937700000
vn 0.001500000 -0.346200000 0.938200000
vn -0.000000000 -0.349100000 0.937100000
vn 0.302300000 0.174600000 0.937100000
vn -0.302300000 -0.174600000 0.937100000
vn -0.304300000 -0.174600000 0.936400000
vn 0.001400000 0.000800000 1.000000000
vn -0.000000000 -0.001000000 -1.000000000
vn -0.000000000 0.000000000 1.000000000
vn 0.001000000 0.000000000 1.000000000
vn -0.000000000 0.001700000 1.000000000
vn -0.000800000 -0.000500000 -1.000000000
vn 0.001700000 0.000000000 -1.000000000
vn -0.000600000 0.000000000 -1.000000000
s 0
f 1//1 2//1 3//1
f 1//2 3//2 4//2
f 5//3 6//3 2//3
f 5//4 2//4 1//4
f 7//5 8//5 9//5
f 7//6 9//6 10//6
f 10//7 9//7 11//7
f 10//8 11//8 12//8
f 4//9 3//9 8//9
f 4//9 8//9 7//9
f 12//10 11//10 6//10
f 12//11 6//11 5//11
f 6//12 11//12 9//12
f 12//13 7//13 10//13
f 3//14 9//14 8//14
f 6//15 9//15 3//15
f 2//16 6//16 3//16
f 1//17 4//17 7//17
f 5//18 1//18 12//18
f 12//19 1//19 7//19
