# Blender 4.3.2
# www.blender.org
mtllib mesh_land_ramp_d.mtl
o mesh_land_ramp_d.002
v 4.063190000 4.969714000 0.300000000
v 3.531087000 4.209791000 0.300000000
v 3.531087000 4.209791000 0.000000000
v 3.531087000 4.969714000 0.300000000
v 4.266452000 5.260002000 0.234069000
v 4.266452000 5.410003000 0.200000000
v 3.531087000 5.410003000 0.200000000
v 4.266452000 5.260002000 0.000000000
v 3.531087000 4.969714000 0.000000000
v 4.266452000 5.410003000 0.000000000
v 3.531087000 5.410003000 0.000000000
vn 0.819200000 -0.573600000 -0.000000000
vn -0.000000000 0.000000000 1.000000000
vn -0.000000000 0.221500000 0.975200000
vn -0.000000000 0.000000000 -1.000000000
vn 1.000000000 0.000000000 -0.000000000
vn -0.000000000 1.000000000 -0.000000000
vn -1.000000000 0.000000000 -0.000000000
s 0
f 1//1 2//1 3//1
f 2//2 1//2 4//2
f 5//3 6//3 7//3
f 8//4 3//4 9//4
f 3//1 8//1 1//1
f 8//1 5//1 1//1
f 6//5 5//5 8//5
f 6//5 8//5 10//5
f 11//6 7//6 6//6
f 11//6 6//6 10//6
f 7//7 11//7 9//7
f 7//7 9//7 4//7
f 11//4 10//4 8//4
f 11//4 8//4 9//4
f 1//3 5//3 7//3
f 1//3 7//3 4//3
f 3//7 2//7 4//7
f 3//7 4//7 9//7
