# Blender 4.3.2
# www.blender.org
mtllib mesh_base.mtl
o mesh_base.002
v 10.694711000 -0.556870000 0.000001000
v 11.483540000 -1.012300000 0.000001000
v 11.488403000 -0.531788000 1.376835000
v 11.066755000 -0.288349000 1.376835000
v 11.926807000 0.318680000 1.376835000
v 11.926807000 -0.278675000 1.376835000
v 12.303717000 -0.538771000 0.000002000
v 12.303717000 0.578776000 0.000002000
v 11.066755000 0.328354000 1.376835000
v 10.694711000 0.596874000 0.000001000
v 11.488403000 0.571793000 1.376835000
v 11.483540000 1.052304000 0.000001000
vn -0.478400000 -0.828600000 0.290900000
vn 0.964500000 0.000000000 0.264000000
vn -0.965400000 0.000000000 0.260900000
vn 0.478800000 -0.829400000 0.287800000
vn 0.478900000 -0.829400000 0.287800000
vn 0.478800000 0.829400000 0.287800000
vn 0.478900000 0.829400000 0.287800000
vn -0.000000000 0.000000000 1.000000000
vn -0.000000000 0.000000000 -1.000000000
vn -0.478400000 0.828600000 0.290900000
s 0
f 1//1 2//1 3//1
f 1//1 3//1 4//1
f 5//2 6//2 7//2
f 5//2 7//2 8//2
f 1//3 4//3 9//3
f 1//3 9//3 10//3
f 7//4 6//4 3//4
f 7//5 3//5 2//5
f 11//6 5//6 8//6
f 11//7 8//7 12//7
f 4//8 3//8 6//8
f 10//9 12//9 8//9
f 10//9 8//9 7//9
f 10//9 7//9 1//9
f 11//8 9//8 5//8
f 10//10 9//10 11//10
f 10//10 11//10 12//10
f 2//9 1//9 7//9
f 4//8 6//8 5//8
f 4//8 5//8 9//8
