# Blender 4.3.2
# www.blender.org
mtllib mesh_land_high_b.001.mtl
o mesh_land_high_b.002
v -4.218388000 7.504491000 0.200000000
v -4.218388000 6.357480000 0.200000000
v -1.501284000 6.357481000 0.200000000
v -1.501285000 7.504492000 0.200000000
v -4.218388000 6.357480000 0.000000000
v -1.501284000 6.358740000 0.000000000
v -4.218388000 7.504491000 0.000000000
v -1.501284000 7.504492000 0.000000000
vn -0.000000000 0.000000000 1.000000000
vn 0.000500000 -1.000000000 -0.006300000
vn -0.000000000 -1.000000000 -0.000000000
vn -1.000000000 0.000000000 -0.000000000
vn -0.000000000 1.000000000 -0.000000000
vn 1.000000000 0.000000000 -0.000000000
vn -0.000000000 0.000000000 -1.000000000
s 0
f 1//1 2//1 3//1
f 1//1 3//1 4//1
f 5//2 6//2 3//2
f 5//3 3//3 2//3
f 5//4 2//4 1//4
f 5//4 1//4 7//4
f 4//5 8//5 7//5
f 4//5 7//5 1//5
f 4//6 3//6 6//6
f 4//6 6//6 8//6
f 6//7 5//7 7//7
f 6//7 7//7 8//7
