# Blender 4.3.2
# www.blender.org
mtllib mesh_land_ramp_c.001.mtl
o mesh_land_ramp_c.002
v -3.531086000 -5.410001000 0.000000000
v -3.531086000 -5.410001000 0.200123000
v -3.531086000 -4.969713000 0.300000000
v -3.531087000 -3.488226000 0.300000000
v 1.920588000 -4.969712000 0.300000000
v -3.531087000 -3.488226000 0.000000000
v 1.612294000 -5.410000000 0.200123000
v 1.612294000 -5.410000000 0.000000000
v 1.920588000 -4.969712000 0.000000000
vn -1.000000000 0.000000000 -0.000000000
vn -0.000000000 0.000000000 1.000000000
vn -0.000000000 -0.221200000 0.975200000
vn -0.000000000 0.000000000 -1.000000000
vn 0.262200000 0.965000000 -0.000000000
vn 0.819200000 -0.573600000 -0.000000000
vn -0.000000000 -1.000000000 -0.000000000
s 0
f 1//1 2//1 3//1
f 4//2 3//2 5//2
f 4//1 6//1 3//1
f 6//1 1//1 3//1
f 7//3 5//3 3//3
f 7//3 3//3 2//3
f 8//4 1//4 6//4
f 8//4 6//4 9//4
f 9//5 6//5 4//5
f 9//5 4//5 5//5
f 7//6 8//6 9//6
f 7//6 9//6 5//6
f 2//7 1//7 8//7
f 2//7 8//7 7//7
