# Blender 4.3.2
# www.blender.org
mtllib mesh_wall_c.mtl
o mesh_wall_c.002
v 10.500010000 3.549481000 0.000000000
v 10.500009000 7.504493000 0.000000000
v 10.500009000 7.504493000 1.100000000
v 10.500010000 3.549481000 1.100000000
v 10.300011000 3.549481000 0.000000000
v 10.300011000 3.549481000 1.100000000
v 10.300010000 7.504493000 1.100000000
v 10.300010000 7.504493000 0.000000000
vn 1.000000000 0.000000000 -0.000000000
vn -0.000000000 -1.000000000 -0.000000000
vn -0.000000000 0.000000000 1.000000000
vn -1.000000000 0.000000000 -0.000000000
vn -0.000000000 1.000000000 -0.000000000
vn -0.000000000 0.000000000 -1.000000000
s 0
f 1//1 2//1 3//1
f 1//1 3//1 4//1
f 5//2 1//2 4//2
f 5//2 4//2 6//2
f 4//3 3//3 7//3
f 4//3 7//3 6//3
f 6//4 7//4 8//4
f 6//4 8//4 5//4
f 8//5 7//5 3//5
f 8//5 3//5 2//5
f 8//6 2//6 1//6
f 8//6 1//6 5//6
